<?xml version="1.0" encoding="UTF-8" standalone="no"?>
<svg
   xmlns:dc="http://purl.org/dc/elements/1.1/"
   xmlns:cc="http://creativecommons.org/ns#"
   xmlns:rdf="http://www.w3.org/1999/02/22-rdf-syntax-ns#"
   xmlns:svg="http://www.w3.org/2000/svg"
   xmlns="http://www.w3.org/2000/svg"
   xmlns:sodipodi="http://sodipodi.sourceforge.net/DTD/sodipodi-0.dtd"
   xmlns:inkscape="http://www.inkscape.org/namespaces/inkscape"
   sodipodi:docname="atlas3.svg"
   inkscape:version="1.0 (4035a4fb49, 2020-05-01)"
   id="svg2192"
   version="1.1"
   viewBox="0 0 13.942841 3.384572"
   height="3.384572mm"
   width="13.942841mm">
  <defs
     id="defs2186" />
  <sodipodi:namedview
     inkscape:window-maximized="1"
     inkscape:window-y="-8"
     inkscape:window-x="-8"
     inkscape:window-height="1017"
     inkscape:window-width="1920"
     fit-margin-bottom="0"
     fit-margin-right="0"
     fit-margin-left="0"
     fit-margin-top="0"
     showgrid="false"
     inkscape:document-rotation="0"
     inkscape:current-layer="layer1"
     inkscape:document-units="mm"
     inkscape:cy="15.388413"
     inkscape:cx="66.00601"
     inkscape:zoom="3.959798"
     inkscape:pageshadow="2"
     inkscape:pageopacity="0.0"
     borderopacity="1.0"
     bordercolor="#666666"
     pagecolor="#ffffff"
     id="base" />
  <metadata
     id="metadata2189">
    <rdf:RDF>
      <cc:Work
         rdf:about="">
        <dc:format>image/svg+xml</dc:format>
        <dc:type
           rdf:resource="http://purl.org/dc/dcmitype/StillImage" />
        <dc:title></dc:title>
      </cc:Work>
    </rdf:RDF>
  </metadata>
  <g
     transform="translate(-78.451199,-55.760095)"
     id="layer1"
     inkscape:groupmode="layer"
     inkscape:label="Слой 1">
    <text
       xml:space="preserve"
       style="font-size:3.52777px;line-height:1.25;font-family:'Roboto Condensed';-inkscape-font-specification:'Roboto Condensed, ';fill:#838e34;fill-opacity:1;stroke-width:0.264583;"
       x="82.482521"
       y="58.575947"
       id="text1038"><tspan
         sodipodi:role="line"
         id="tspan1036"
         x="82.482521"
         y="58.575947"
         style="font-style:normal;font-variant:normal;font-weight:bold;font-stretch:normal;font-size:3.52777px;font-family:'Roboto Condensed';-inkscape-font-specification:'Roboto Condensed, Bold';fill:#838e34;fill-opacity:1;stroke-width:0.264583;">АТЛАС</tspan></text>
    <path
       d="m 81.412653,55.760095 c 0.128441,0 0.212592,0.514139 0.242771,0.733434 1.000263,0.162412 1.350605,0.93544 1.350605,0.93544 0,0 -0.172818,0.750951 -1.294222,1.033146 -0.0087,0.229678 -0.04268,0.760682 -0.171227,0.672843 -0.162825,-0.111259 -0.209307,-0.315227 -0.209307,-0.315227 0,0 0.02775,-0.154326 0.06799,-0.297734 -0.319721,0.04263 -0.647754,0.03235 -0.943146,-0.02703 -0.01485,-0.003 -0.07037,-0.139306 -0.151403,-0.178073 -0.0036,-0.0017 -0.008,-0.0037 -0.01166,-0.0054 -0.01541,0.05485 -0.127472,0.427415 -0.310918,0.341391 -0.197716,-0.09272 -0.616404,-0.500667 -0.558252,-0.649013 0.0061,-0.01553 0.02083,-0.02427 0.04168,-0.02799 -0.193291,-0.07167 -0.353198,-0.127202 -0.402236,-0.138929 -0.232606,-0.05563 -0.407038,0.44503 -0.569862,0.44503 -0.05815,0 -0.05817,-1.427827 0.01161,-1.427827 0.06978,0 0.383803,0.463609 0.61641,0.426523 0.193698,-0.03089 0.573396,-0.550087 1.473866,-0.744438 -0.01042,-0.08539 -0.02193,-0.176121 -0.03169,-0.23836 -0.02326,-0.148345 0.686165,-0.537767 0.848989,-0.537767 z"
       style="fill:#e5c232;stroke:none;stroke-width:0.0205596px;stroke-linecap:butt;stroke-linejoin:miter;stroke-opacity:1;fill-opacity:1"
       id="path1099" />
  </g>
</svg>
