<?xml version="1.0" encoding="UTF-8" standalone="no"?>
<svg
   xmlns:dc="http://purl.org/dc/elements/1.1/"
   xmlns:cc="http://creativecommons.org/ns#"
   xmlns:rdf="http://www.w3.org/1999/02/22-rdf-syntax-ns#"
   xmlns:svg="http://www.w3.org/2000/svg"
   xmlns="http://www.w3.org/2000/svg"
   xmlns:sodipodi="http://sodipodi.sourceforge.net/DTD/sodipodi-0.dtd"
   xmlns:inkscape="http://www.inkscape.org/namespaces/inkscape"
   sodipodi:docname="fisch.svg"
   inkscape:version="1.0 (4035a4fb49, 2020-05-01)"
   id="svg1030"
   version="1.1"
   viewBox="0 0 9.5287363 20.655846"
   height="78.069344"
   width="36.014122">
  <defs
     id="defs1024" />
  <sodipodi:namedview
     inkscape:window-maximized="0"
     inkscape:window-y="0"
     inkscape:window-x="130"
     inkscape:window-height="1040"
     inkscape:window-width="1513"
     fit-margin-bottom="0"
     fit-margin-right="0"
     fit-margin-left="0"
     fit-margin-top="0"
     showgrid="false"
     inkscape:document-rotation="0"
     inkscape:current-layer="layer1"
     inkscape:document-units="mm"
     inkscape:cy="55.771397"
     inkscape:cx="15.442608"
     inkscape:zoom="11.2"
     inkscape:pageshadow="2"
     inkscape:pageopacity="0.0"
     borderopacity="1.0"
     bordercolor="#666666"
     pagecolor="#ffffff"
     id="base"
     units="px" />
  <metadata
     id="metadata1027">
    <rdf:RDF>
      <cc:Work
         rdf:about="">
        <dc:format>image/svg+xml</dc:format>
        <dc:type
           rdf:resource="http://purl.org/dc/dcmitype/StillImage" />
        <dc:title></dc:title>
      </cc:Work>
    </rdf:RDF>
  </metadata>
  <g
     transform="translate(-55.741254,-0.11178311)"
     id="layer1"
     inkscape:groupmode="layer"
     inkscape:label="Слой 1">
    <path
       id="path1072"
       style="fill:#e5c232;fill-opacity:1;stroke:none;stroke-width:0.042168px;stroke-linecap:butt;stroke-linejoin:miter;stroke-opacity:1"
       d="m 61.938206,6.9896374 c 0.268573,0 0.444535,1.0343244 0.507638,1.4754926 2.091575,0.3267327 2.824146,1.881878 2.824146,1.881878 0,0 -0.361364,1.510731 -2.706246,2.07844 -0.01819,0.462055 -0.08925,1.530307 -0.358042,1.353597 -0.340469,-0.223827 -0.437664,-0.63416 -0.437664,-0.63416 0,0 0.05803,-0.310468 0.142169,-0.59897 -0.668545,0.08575 -1.354469,0.06508 -1.972141,-0.05437 -0.03105,-0.0061 -0.147145,-0.280249 -0.316587,-0.358239 -0.0075,-0.0035 -0.01673,-0.0074 -0.02438,-0.0109 -0.03223,0.110351 -0.266548,0.859857 -0.650137,0.686795 -0.41343,-0.186522 -1.288915,-1.007219 -1.167319,-1.305655 0.01275,-0.03123 0.04357,-0.04883 0.08716,-0.05629 -0.404175,-0.144177 -0.738542,-0.255898 -0.841085,-0.279492 -0.486384,-0.111912 -0.851123,0.895294 -1.191592,0.895294 -0.121593,0 -0.121635,-2.8724431 0.02428,-2.8724431 0.145911,0 0.80254,0.9326691 1.28893,0.8580611 0.405023,-0.06213 1.19898,-1.1066453 3.081885,-1.4976324 -0.02179,-0.1717755 -0.04586,-0.3543138 -0.06627,-0.4795225 -0.04864,-0.2984352 1.434784,-1.0818575 1.775254,-1.0818575 z"
       inkscape:export-filename="C:\xampp\htdocs\fish-atlas\img\fisch.png"
       inkscape:export-xdpi="72.803276"
       inkscape:export-ydpi="72.803276" />
    <path
       d="m 61.933726,0.11178311 c 0.268573,0 0.444536,1.03432439 0.50764,1.47549249 2.091576,0.326733 2.824148,1.8818773 2.824148,1.8818773 0,0 -0.361365,1.5107315 -2.706249,2.0784397 -0.01819,0.4620558 -0.08925,1.5303069 -0.358041,1.3535977 -0.340469,-0.2238275 -0.437665,-0.6341606 -0.437665,-0.6341606 0,0 0.05802,-0.310467 0.142169,-0.5989692 -0.668544,0.085755 -1.354469,0.065079 -1.972141,-0.054368 -0.03105,-0.00607 -0.147146,-0.2802494 -0.316587,-0.3582393 -0.0075,-0.0035 -0.01673,-0.00744 -0.02439,-0.010904 -0.03223,0.1103518 -0.266547,0.859857 -0.650137,0.686796 C 58.529048,5.7448234 57.653561,4.9241255 57.775158,4.62569 57.787908,4.594452 57.818728,4.576856 57.862318,4.56939 57.45814,4.4252104 57.12377,4.3134898 57.021231,4.2898968 56.534847,4.1779847 56.170105,5.1851893 55.829635,5.1851893 c -0.121593,0 -0.121634,-2.8724425 0.02428,-2.8724425 0.145912,0 0.802542,0.9326692 1.288928,0.8580612 0.405027,-0.062136 1.198985,-1.1066408 3.08189,-1.4976276 -0.02179,-0.171776 -0.04587,-0.3543138 -0.06627,-0.4795225 -0.04864,-0.29843535 1.434787,-1.08185762 1.775256,-1.08185762 z"
       style="fill:#e6e6e6;stroke:none;stroke-width:0.042168px;stroke-linecap:butt;stroke-linejoin:miter;stroke-opacity:1"
       id="path1099"
       inkscape:export-filename="C:\xampp\htdocs\fish-atlas\img\fisch.png"
       inkscape:export-xdpi="72.803276"
       inkscape:export-ydpi="72.803276" />
    <path
       inkscape:export-ydpi="72.803276"
       inkscape:export-xdpi="72.803276"
       inkscape:export-filename="C:\xampp\htdocs\fish-atlas\img\fisch.png"
       d="m 61.938206,13.958691 c 0.268573,0 0.444535,1.034325 0.507638,1.475494 2.091575,0.326732 2.824146,1.881877 2.824146,1.881877 0,0 -0.361364,1.510731 -2.706246,2.078439 -0.01819,0.462056 -0.08925,1.530307 -0.358042,1.353597 -0.340469,-0.223826 -0.437664,-0.634159 -0.437664,-0.634159 0,0 0.05803,-0.310467 0.142169,-0.59897 -0.668545,0.08575 -1.354469,0.06508 -1.972141,-0.05437 -0.03105,-0.0061 -0.147145,-0.280249 -0.316587,-0.35824 -0.0075,-0.0035 -0.01673,-0.0074 -0.02438,-0.01091 -0.03223,0.110351 -0.266548,0.859857 -0.650137,0.686795 -0.41343,-0.186521 -1.288915,-1.007219 -1.167319,-1.305655 0.01275,-0.03123 0.04357,-0.04883 0.08716,-0.05629 -0.404175,-0.144178 -0.738542,-0.255899 -0.841085,-0.279491 -0.486384,-0.111913 -0.851123,0.895292 -1.191592,0.895292 -0.121593,0 -0.121635,-2.872442 0.02428,-2.872442 0.145911,0 0.80254,0.932668 1.28893,0.858061 0.405023,-0.06214 1.19898,-1.10664 3.081885,-1.497628 -0.02179,-0.171776 -0.04586,-0.354314 -0.06626,-0.479523 -0.04864,-0.298435 1.434785,-1.081858 1.775254,-1.081858 z"
       style="fill:#999999;fill-opacity:1;stroke:none;stroke-width:0.042168px;stroke-linecap:butt;stroke-linejoin:miter;stroke-opacity:1"
       id="path2751" />
  </g>
</svg>
