<?xml version="1.0" encoding="UTF-8" standalone="no"?>
<svg
   xmlns:dc="http://purl.org/dc/elements/1.1/"
   xmlns:cc="http://creativecommons.org/ns#"
   xmlns:rdf="http://www.w3.org/1999/02/22-rdf-syntax-ns#"
   xmlns:svg="http://www.w3.org/2000/svg"
   xmlns="http://www.w3.org/2000/svg"
   xmlns:sodipodi="http://sodipodi.sourceforge.net/DTD/sodipodi-0.dtd"
   xmlns:inkscape="http://www.inkscape.org/namespaces/inkscape"
   width="46.151772"
   height="103.9871"
   viewBox="0 0 12.210989 27.513252"
   version="1.1"
   id="svg1030"
   inkscape:version="1.0 (4035a4fb49, 2020-05-01)"
   sodipodi:docname="fisch.svg">
  <defs
     id="defs1024" />
  <sodipodi:namedview
     units="px"
     id="base"
     pagecolor="#ffffff"
     bordercolor="#666666"
     borderopacity="1.0"
     inkscape:pageopacity="0.0"
     inkscape:pageshadow="2"
     inkscape:zoom="5.6"
     inkscape:cx="48.033043"
     inkscape:cy="51.574187"
     inkscape:document-units="mm"
     inkscape:current-layer="layer1"
     inkscape:document-rotation="0"
     showgrid="false"
     fit-margin-top="0"
     fit-margin-left="0"
     fit-margin-right="0"
     fit-margin-bottom="0"
     inkscape:window-width="1513"
     inkscape:window-height="1040"
     inkscape:window-x="130"
     inkscape:window-y="0"
     inkscape:window-maximized="0" />
  <metadata
     id="metadata1027">
    <rdf:RDF>
      <cc:Work
         rdf:about="">
        <dc:format>image/svg+xml</dc:format>
        <dc:type
           rdf:resource="http://purl.org/dc/dcmitype/StillImage" />
        <dc:title />
      </cc:Work>
    </rdf:RDF>
  </metadata>
  <g
     inkscape:label="Слой 1"
     inkscape:groupmode="layer"
     id="layer1"
     transform="translate(-55.741254,-0.11178311)">
    <path
       inkscape:export-ydpi="72.803276"
       inkscape:export-xdpi="72.803276"
       inkscape:export-filename="C:\xampp\htdocs\fish-atlas\img\fisch.png"
       d="m 63.682591,9.2952228 c 0.344174,0 0.569668,1.3777032 0.650533,1.9653322 2.680336,0.435203 3.61912,2.50663 3.61912,2.50663 0,0 -0.463086,2.01227 -3.468031,2.768448 -0.02331,0.61545 -0.114367,2.038343 -0.458828,1.80297 -0.436308,-0.298135 -0.560862,-0.844692 -0.560862,-0.844692 0,0 0.07436,-0.413537 0.182188,-0.797817 -0.856734,0.114224 -1.73574,0.08668 -2.527281,-0.07242 -0.03979,-0.0081 -0.188565,-0.373288 -0.405704,-0.477169 -0.0096,-0.0047 -0.02144,-0.0099 -0.03124,-0.01452 -0.04129,0.146986 -0.341578,1.145315 -0.833145,0.9148 -0.529805,-0.248444 -1.651733,-1.3416 -1.495907,-1.739112 0.01634,-0.04161 0.05582,-0.06504 0.111686,-0.07499 -0.517948,-0.192043 -0.946436,-0.340853 -1.077843,-0.372279 -0.623297,-0.149065 -1.090707,1.192515 -1.527015,1.192515 -0.155821,0 -0.155874,-3.826046 0.03111,-3.826046 0.186985,0 1.02845,1.2423 1.651753,1.142923 0.519033,-0.08276 1.536482,-1.474027 3.949407,-1.994816 -0.02792,-0.228802 -0.05876,-0.47194 -0.08492,-0.638716 -0.06233,-0.397511 1.838664,-1.4410165 2.274972,-1.4410165 z"
       style="fill:#e5c232;fill-opacity:1;stroke:none;stroke-width:0.0550921px;stroke-linecap:butt;stroke-linejoin:miter;stroke-opacity:1"
       id="path1072" />
    <path
       inkscape:export-ydpi="72.803276"
       inkscape:export-xdpi="72.803276"
       inkscape:export-filename="C:\xampp\htdocs\fish-atlas\img\fisch.png"
       id="path1099"
       style="fill:#e6e6e6;stroke:none;stroke-width:0.0550921px;stroke-linecap:butt;stroke-linejoin:miter;stroke-opacity:1"
       d="m 63.676851,0.11178311 c 0.344174,0 0.569668,1.37770329 0.650536,1.96533199 2.680336,0.435203 3.61912,2.5066299 3.61912,2.5066299 0,0 -0.463086,2.0122698 -3.468034,2.7684478 -0.02331,0.6154508 -0.114367,2.0383439 -0.458825,1.8029701 -0.43631,-0.2981346 -0.560865,-0.8446917 -0.560865,-0.8446917 0,0 0.07436,-0.4135368 0.182188,-0.7978172 -0.856733,0.1142245 -1.73574,0.086683 -2.527281,-0.072417 -0.03979,-0.00807 -0.188565,-0.3732875 -0.405703,-0.4771689 -0.0096,-0.00466 -0.02144,-0.00991 -0.03125,-0.014524 C 60.635447,7.0955298 60.33516,8.0938585 59.843593,7.863344 59.313792,7.6149 58.191864,6.5217438 58.34769,6.1242325 58.36404,6.0826235 58.40351,6.0591875 58.459377,6.0492405 57.941429,5.8571969 57.512937,5.708387 57.381534,5.6769614 56.758236,5.5278963 56.290823,6.8694763 55.854515,6.8694763 c -0.15582,0 -0.155874,-3.8260464 0.03111,-3.8260464 0.186984,0 1.028449,1.2423001 1.65175,1.1429234 0.519038,-0.082763 1.536488,-1.4740273 3.949413,-1.9948156 -0.02792,-0.2288027 -0.05877,-0.47194 -0.08492,-0.6387161 -0.06233,-0.397511 1.838667,-1.44101669 2.274975,-1.44101669 z" />
    <path
       id="path2751"
       style="fill:#999999;fill-opacity:1;stroke:none;stroke-width:0.0550921px;stroke-linecap:butt;stroke-linejoin:miter;stroke-opacity:1"
       d="m 63.682591,18.555639 c 0.344174,0 0.569668,1.377704 0.650533,1.965333 2.680336,0.435203 3.61912,2.50663 3.61912,2.50663 0,0 -0.463086,2.01227 -3.468031,2.768448 -0.02331,0.61545 -0.114367,2.038343 -0.458828,1.80297 -0.436308,-0.298135 -0.560862,-0.844692 -0.560862,-0.844692 0,0 0.07436,-0.413537 0.182188,-0.797817 -0.856734,0.114224 -1.73574,0.08668 -2.527281,-0.07242 -0.03979,-0.0081 -0.188565,-0.373288 -0.405704,-0.477169 -0.0096,-0.0047 -0.02144,-0.0099 -0.03124,-0.01452 -0.04129,0.146986 -0.341578,1.145315 -0.833145,0.9148 -0.529805,-0.248444 -1.651733,-1.3416 -1.495907,-1.739112 0.01634,-0.04161 0.05582,-0.06504 0.111686,-0.07499 -0.517948,-0.192043 -0.946436,-0.340853 -1.077843,-0.372279 -0.623297,-0.149065 -1.090707,1.192515 -1.527015,1.192515 -0.155821,0 -0.155874,-3.826046 0.03111,-3.826046 0.186985,0 1.02845,1.2423 1.651753,1.142923 0.519033,-0.08276 1.536482,-1.474027 3.949407,-1.994816 -0.02792,-0.228802 -0.05876,-0.47194 -0.08492,-0.638716 -0.06233,-0.397511 1.838664,-1.441017 2.274972,-1.441017 z"
       inkscape:export-filename="C:\xampp\htdocs\fish-atlas\img\fisch.png"
       inkscape:export-xdpi="72.803276"
       inkscape:export-ydpi="72.803276" />
  </g>
</svg>
