<?xml version="1.0" encoding="UTF-8" standalone="no"?>
<svg
   xmlns:dc="http://purl.org/dc/elements/1.1/"
   xmlns:cc="http://creativecommons.org/ns#"
   xmlns:rdf="http://www.w3.org/1999/02/22-rdf-syntax-ns#"
   xmlns:svg="http://www.w3.org/2000/svg"
   xmlns="http://www.w3.org/2000/svg"
   xmlns:sodipodi="http://sodipodi.sourceforge.net/DTD/sodipodi-0.dtd"
   xmlns:inkscape="http://www.inkscape.org/namespaces/inkscape"
   sodipodi:docname="header1.svg"
   inkscape:version="1.0 (4035a4fb49, 2020-05-01)"
   id="svg1059"
   version="1.1"
   viewBox="0 0 77.922974 6.420619"
   height="6.420619mm"
   width="77.922974mm">
  <defs
     id="defs1053" />
  <sodipodi:namedview
     inkscape:window-maximized="0"
     inkscape:window-y="0"
     inkscape:window-x="130"
     inkscape:window-height="1040"
     inkscape:window-width="1513"
     showgrid="false"
     inkscape:document-rotation="0"
     inkscape:current-layer="layer1"
     inkscape:document-units="mm"
     inkscape:cy="454.9906"
     inkscape:cx="402.50933"
     inkscape:zoom="0.35"
     inkscape:pageshadow="2"
     inkscape:pageopacity="0.0"
     borderopacity="1.0"
     bordercolor="#666666"
     pagecolor="#ffffff"
     id="base"
     fit-margin-top="0"
     fit-margin-left="0"
     fit-margin-right="0"
     fit-margin-bottom="0" />
  <metadata
     id="metadata1056">
    <rdf:RDF>
      <cc:Work
         rdf:about="">
        <dc:format>image/svg+xml</dc:format>
        <dc:type
           rdf:resource="http://purl.org/dc/dcmitype/StillImage" />
        <dc:title></dc:title>
      </cc:Work>
    </rdf:RDF>
  </metadata>
  <g
     id="layer1"
     inkscape:groupmode="layer"
     inkscape:label="Слой 1"
     transform="translate(-37.389705,-27.783738)">
    <path
       id="path909"
       style="font-style:normal;font-variant:normal;font-weight:bold;font-stretch:normal;font-size:9.5281px;line-height:1.25;font-family:'Roboto Condensed';-inkscape-font-specification:'Roboto Condensed, Bold';fill:#ffffff;fill-opacity:1;stroke:none;stroke-width:0.219744"
       d="m 41.896155,31.55628 q 0,1.257515 -0.59657,1.952797 -0.59228,0.69528 -1.64807,0.69528 -1.05151,0 -1.65237,-0.686698 -0.60086,-0.690989 -0.60944,-1.931334 v -1.068674 q 0,-1.287557 0.59656,-2.00859 0.59657,-0.725323 1.65666,-0.725323 1.04292,0 1.64378,0.712448 0.60086,0.708157 0.60945,1.991422 z m -1.2661,-1.047213 q 0,-0.845495 -0.24035,-1.257514 -0.24034,-0.412019 -0.74678,-0.412019 -0.50215,0 -0.74249,0.399143 -0.24034,0.394852 -0.24893,1.206012 v 1.111591 q 0,0.819746 0.24464,1.210305 0.24463,0.386266 0.75537,0.386266 0.49356,0 0.7339,-0.377683 0.24035,-0.381975 0.24464,-1.180261 z"
       inkscape:export-filename="C:\xampp\htdocs\fish-atlas\img\imgmain1.png"
       inkscape:export-xdpi="96"
       inkscape:export-ydpi="96" />
    <path
       id="path911"
       style="font-style:normal;font-variant:normal;font-weight:bold;font-stretch:normal;font-size:9.5281px;line-height:1.25;font-family:'Roboto Condensed';-inkscape-font-specification:'Roboto Condensed, Bold';fill:#ffffff;fill-opacity:1;stroke:none;stroke-width:0.219744"
       d="m 47.188015,34.180159 h -1.26181 v -5.19744 h -1.85408 v 5.19744 h -1.26181 v -6.248945 h 4.3777 z"
       inkscape:export-filename="C:\xampp\htdocs\fish-atlas\img\imgmain1.png"
       inkscape:export-xdpi="96"
       inkscape:export-ydpi="96" />
    <path
       id="path913"
       style="font-style:normal;font-variant:normal;font-weight:bold;font-stretch:normal;font-size:9.5281px;line-height:1.25;font-family:'Roboto Condensed';-inkscape-font-specification:'Roboto Condensed, Bold';fill:#ffffff;fill-opacity:1;stroke:none;stroke-width:0.219744"
       d="m 49.471285,31.982727 v 2.197432 h -1.26181 v -6.248945 h 2.12876 q 0.92704,0 1.4764,0.575108 0.55365,0.57511 0.55365,1.493568 0,0.918456 -0.54507,1.450647 -0.54506,0.53219 -1.51073,0.53219 z m 0,-1.051505 h 0.86695 q 0.36052,0 0.55794,-0.236051 0.19743,-0.236052 0.19743,-0.686698 0,-0.467813 -0.20172,-0.74249 -0.20172,-0.278972 -0.54077,-0.283264 h -0.87983 z"
       inkscape:export-filename="C:\xampp\htdocs\fish-atlas\img\imgmain1.png"
       inkscape:export-xdpi="96"
       inkscape:export-ydpi="96" />
    <path
       id="path915"
       style="font-style:normal;font-variant:normal;font-weight:bold;font-stretch:normal;font-size:9.5281px;line-height:1.25;font-family:'Roboto Condensed';-inkscape-font-specification:'Roboto Condensed, Bold';fill:#ffffff;fill-opacity:1;stroke:none;stroke-width:0.219744"
       d="m 56.432675,31.476288 h -1.96567 v 1.656658 h 2.32619 v 1.047213 h -3.588 v -6.248945 h 3.57941 v 1.051505 h -2.3176 v 1.4764 h 1.96567 z"
       inkscape:export-filename="C:\xampp\htdocs\fish-atlas\img\imgmain1.png"
       inkscape:export-xdpi="96"
       inkscape:export-ydpi="96" />
    <path
       id="path917"
       style="font-style:normal;font-variant:normal;font-weight:bold;font-stretch:normal;font-size:9.5281px;line-height:1.25;font-family:'Roboto Condensed';-inkscape-font-specification:'Roboto Condensed, Bold';fill:#ffffff;fill-opacity:1;stroke:none;stroke-width:0.21867"
       d="m 62.518535,34.190528 c -1.76968,4.24e-4 -3.53936,-0.0043 -5.30903,-0.0043 l -0.0687,-1.104057 h 0.41631 c 0.18312,-0.167166 0.32761,-0.436332 0.43348,-0.807501 0.10586,-0.371167 0.18025,-0.857083 0.22317,-1.457752 l 0.17597,-2.885753 h 3.59228 v 5.151006 h 0.64807 z m -3.60517,-1.108306 h 1.81117 v -4.109757 h -1.13305 l -0.10301,1.704252 c -0.0715,1.022834 -0.26323,1.82467 -0.57511,2.405505 z"
       sodipodi:nodetypes="ccccscccccccccccc"
       inkscape:export-filename="C:\xampp\htdocs\fish-atlas\img\imgmain1.png"
       inkscape:export-xdpi="96"
       inkscape:export-ydpi="96" />
    <path
       id="path919"
       style="font-style:normal;font-variant:normal;font-weight:bold;font-stretch:normal;font-size:9.5281px;line-height:1.25;font-family:'Roboto Condensed';-inkscape-font-specification:'Roboto Condensed, Bold';fill:#ffffff;fill-opacity:1;stroke:none;stroke-width:0.219744"
       d="m 66.509955,31.476288 h -1.96567 v 1.656658 h 2.32619 v 1.047213 h -3.58799 v -6.248945 h 3.57941 v 1.051505 h -2.31761 v 1.4764 h 1.96567 z"
       inkscape:export-filename="C:\xampp\htdocs\fish-atlas\img\imgmain1.png"
       inkscape:export-xdpi="96"
       inkscape:export-ydpi="96" />
    <path
       id="path921"
       style="font-style:normal;font-variant:normal;font-weight:bold;font-stretch:normal;font-size:9.5281px;line-height:1.25;font-family:'Roboto Condensed';-inkscape-font-specification:'Roboto Condensed, Bold';fill:#ffffff;fill-opacity:1;stroke:none;stroke-width:0.219744"
       d="m 71.973495,27.931214 v 6.248945 h -1.2661 v -5.19744 h -1.1588 l -0.0858,2.214599 q -0.0515,1.094423 -0.24893,1.738203 -0.19313,0.639487 -0.57081,0.939916 -0.3734,0.300431 -1.00859,0.304722 h -0.30901 v -1.047213 l 0.14592,-0.01288 q 0.39485,-0.04722 0.56652,-0.515023 0.17597,-0.472104 0.21889,-1.66524 l 0.0815,-3.008593 z"
       inkscape:export-filename="C:\xampp\htdocs\fish-atlas\img\imgmain1.png"
       inkscape:export-xdpi="96"
       inkscape:export-ydpi="96" />
    <path
       id="path923"
       style="font-style:normal;font-variant:normal;font-weight:bold;font-stretch:normal;font-size:9.5281px;line-height:1.25;font-family:'Roboto Condensed';-inkscape-font-specification:'Roboto Condensed, Bold';fill:#ffffff;fill-opacity:1;stroke:none;stroke-width:0.219744"
       d="m 76.059345,27.931214 h 1.26181 v 6.248945 h -1.26181 v -4.137352 l -1.84121,4.137352 h -1.2661 v -6.248945 h 1.2661 v 4.141643 z"
       inkscape:export-filename="C:\xampp\htdocs\fish-atlas\img\imgmain1.png"
       inkscape:export-xdpi="96"
       inkscape:export-ydpi="96" />
    <path
       id="path925"
       style="font-style:normal;font-variant:normal;font-weight:bold;font-stretch:normal;font-size:9.5281px;line-height:1.25;font-family:'Roboto Condensed';-inkscape-font-specification:'Roboto Condensed, Bold';fill:#ffffff;fill-opacity:1;stroke:none;stroke-width:0.219744"
       d="m 82.248205,28.982719 h -1.54507 v 5.19744 h -1.2661 v -5.19744 h -1.51932 v -1.051505 h 4.33049 z"
       inkscape:export-filename="C:\xampp\htdocs\fish-atlas\img\imgmain1.png"
       inkscape:export-xdpi="96"
       inkscape:export-ydpi="96" />
    <path
       id="path927"
       style="font-style:normal;font-variant:normal;font-weight:bold;font-stretch:normal;font-size:9.5281px;line-height:1.25;font-family:'Roboto Condensed';-inkscape-font-specification:'Roboto Condensed, Bold';fill:#ffffff;fill-opacity:1;stroke:none;stroke-width:0.219744"
       d="m 86.201005,31.476288 h -1.96567 v 1.656658 h 2.32619 v 1.047213 h -3.588 v -6.248945 h 3.57941 v 1.051505 h -2.3176 v 1.4764 h 1.96567 z"
       inkscape:export-filename="C:\xampp\htdocs\fish-atlas\img\imgmain1.png"
       inkscape:export-xdpi="96"
       inkscape:export-ydpi="96" />
    <path
       id="path929"
       style="font-style:normal;font-variant:normal;font-weight:bold;font-stretch:normal;font-size:9.5281px;line-height:1.25;font-family:'Roboto Condensed';-inkscape-font-specification:'Roboto Condensed, Bold';fill:#ffffff;fill-opacity:1;stroke:none;stroke-width:0.219744"
       d="m 91.664535,27.931214 v 6.248945 h -1.26609 v -5.19744 h -1.15881 l -0.0858,2.214599 q -0.0515,1.094423 -0.24892,1.738203 -0.19314,0.639487 -0.57082,0.939916 -0.37339,0.300431 -1.00859,0.304722 h -0.30901 v -1.047213 l 0.14592,-0.01288 q 0.39485,-0.04722 0.56653,-0.515023 0.17596,-0.472104 0.21888,-1.66524 l 0.0815,-3.008593 z"
       inkscape:export-filename="C:\xampp\htdocs\fish-atlas\img\imgmain1.png"
       inkscape:export-xdpi="96"
       inkscape:export-ydpi="96" />
    <path
       id="path931"
       style="font-style:normal;font-variant:normal;font-weight:bold;font-stretch:normal;font-size:9.5281px;line-height:1.25;font-family:'Roboto Condensed';-inkscape-font-specification:'Roboto Condensed, Bold';fill:#ffffff;fill-opacity:1;stroke:none;stroke-width:0.219744"
       d="m 93.952095,30.175856 h 0.74679 q 0.9485,0 1.51073,0.540774 0.56223,0.536482 0.56223,1.437771 0,0.896999 -0.54935,1.45494 -0.54936,0.553651 -1.45494,0.570818 h -2.08155 v -6.248945 h 1.26609 z m 0,1.047213 v 1.909877 h 0.76396 q 0.36909,0 0.5794,-0.274679 0.21459,-0.278971 0.21459,-0.712449 0,-0.407727 -0.2103,-0.660945 -0.20601,-0.257513 -0.57511,-0.261804 z"
       inkscape:export-filename="C:\xampp\htdocs\fish-atlas\img\imgmain1.png"
       inkscape:export-xdpi="96"
       inkscape:export-ydpi="96" />
    <path
       id="path933"
       style="font-style:normal;font-variant:normal;font-weight:bold;font-stretch:normal;font-size:9.5281px;line-height:1.25;font-family:'Roboto Condensed';-inkscape-font-specification:'Roboto Condensed, Bold';fill:#ffffff;fill-opacity:1;stroke:none;stroke-width:0.219744"
       d="m 100.8019,31.982727 v 2.197432 h -1.261795 v -6.248945 h 2.128755 q 0.92704,0 1.4764,0.575108 0.55365,0.57511 0.55365,1.493568 0,0.918456 -0.54507,1.450647 -0.54506,0.53219 -1.51073,0.53219 z m 0,-1.051505 h 0.86696 q 0.36051,0 0.55794,-0.236051 0.19743,-0.236052 0.19743,-0.686698 0,-0.467813 -0.20173,-0.74249 -0.20171,-0.278972 -0.54077,-0.283264 h -0.87983 z"
       inkscape:export-filename="C:\xampp\htdocs\fish-atlas\img\imgmain1.png"
       inkscape:export-xdpi="96"
       inkscape:export-ydpi="96" />
    <path
       id="path935"
       style="font-style:normal;font-variant:normal;font-weight:bold;font-stretch:normal;font-size:9.5281px;line-height:1.25;font-family:'Roboto Condensed';-inkscape-font-specification:'Roboto Condensed, Bold';fill:#ffffff;fill-opacity:1;stroke:none;stroke-width:0.219744"
       d="m 105.81479,30.175856 h 0.74678 q 0.94851,0 1.51074,0.540774 0.56223,0.536482 0.56223,1.437771 0,0.896999 -0.54935,1.45494 -0.54936,0.553651 -1.45495,0.570818 h -2.08155 v -6.248945 h 1.2661 z m 4.40774,4.004303 h -1.2618 v -6.248945 h 1.2618 z m -4.40774,-2.95709 v 1.909877 h 0.76395 q 0.3691,0 0.5794,-0.274679 0.2146,-0.278971 0.2146,-0.712449 0,-0.407727 -0.21031,-0.660945 -0.20601,-0.257513 -0.57511,-0.261804 z"
       inkscape:export-filename="C:\xampp\htdocs\fish-atlas\img\imgmain1.png"
       inkscape:export-xdpi="96"
       inkscape:export-ydpi="96" />
    <path
       id="path937"
       style="font-style:normal;font-variant:normal;font-weight:bold;font-stretch:normal;font-size:9.5281px;line-height:1.25;font-family:'Roboto Condensed';-inkscape-font-specification:'Roboto Condensed, Bold';fill:#ffffff;fill-opacity:1;stroke:none;stroke-width:0.219744"
       d="m 114.73328,28.982719 h -2.24035 v 1.193137 h 0.74678 q 0.9485,0 1.51073,0.540774 0.56224,0.536482 0.56224,1.437771 0,0.896999 -0.54936,1.45494 -0.54936,0.553651 -1.45494,0.570818 h -2.08155 v -6.248945 h 3.50645 z m -2.24035,2.24035 v 1.909877 h 0.76395 q 0.3691,0 0.5794,-0.274679 0.21459,-0.278971 0.21459,-0.712449 0,-0.407727 -0.2103,-0.660945 -0.20601,-0.257513 -0.57511,-0.261804 z"
       inkscape:export-filename="C:\xampp\htdocs\fish-atlas\img\imgmain1.png"
       inkscape:export-xdpi="96"
       inkscape:export-ydpi="96" />
  </g>
</svg>
