<?xml version="1.0" encoding="UTF-8" standalone="no"?>
<svg
   xmlns:dc="http://purl.org/dc/elements/1.1/"
   xmlns:cc="http://creativecommons.org/ns#"
   xmlns:rdf="http://www.w3.org/1999/02/22-rdf-syntax-ns#"
   xmlns:svg="http://www.w3.org/2000/svg"
   xmlns="http://www.w3.org/2000/svg"
   xmlns:sodipodi="http://sodipodi.sourceforge.net/DTD/sodipodi-0.dtd"
   xmlns:inkscape="http://www.inkscape.org/namespaces/inkscape"
   sodipodi:docname="ident3.svg"
   inkscape:version="1.0 (4035a4fb49, 2020-05-01)"
   id="svg2824"
   version="1.1"
   viewBox="0 0 28.036346 3.4325256"
   height="3.4325256mm"
   width="28.036346mm">
  <defs
     id="defs2818" />
  <sodipodi:namedview
     inkscape:window-maximized="0"
     inkscape:window-y="0"
     inkscape:window-x="130"
     inkscape:window-height="1040"
     inkscape:window-width="1513"
     fit-margin-bottom="0"
     fit-margin-right="0"
     fit-margin-left="0"
     fit-margin-top="0"
     showgrid="false"
     inkscape:document-rotation="0"
     inkscape:current-layer="layer1"
     inkscape:document-units="mm"
     inkscape:cy="820.77237"
     inkscape:cx="632.98208"
     inkscape:zoom="0.35"
     inkscape:pageshadow="2"
     inkscape:pageopacity="0.0"
     borderopacity="1.0"
     bordercolor="#666666"
     pagecolor="#ffffff"
     id="base" />
  <metadata
     id="metadata2821">
    <rdf:RDF>
      <cc:Work
         rdf:about="">
        <dc:format>image/svg+xml</dc:format>
        <dc:type
           rdf:resource="http://purl.org/dc/dcmitype/StillImage" />
        <dc:title></dc:title>
      </cc:Work>
    </rdf:RDF>
  </metadata>
  <g
     transform="translate(61.643174,68.996023)"
     id="layer1"
     inkscape:groupmode="layer"
     inkscape:label="Слой 1">
    <text
       id="text1042"
       y="-66.180168"
       x="-57.598419"
       style="font-size:3.52777px;line-height:1.25;font-family:'Roboto Condensed';-inkscape-font-specification:'Roboto Condensed, ';fill:#838e34;fill-opacity:1;stroke-width:0.264583"
       xml:space="preserve"><tspan
         style="font-style:normal;font-variant:normal;font-weight:bold;font-stretch:normal;font-size:3.52777px;font-family:'Roboto Condensed';-inkscape-font-specification:'Roboto Condensed, Bold';fill:#838e34;fill-opacity:1;stroke-width:0.264583"
         y="-66.180168"
         x="-57.598419"
         id="tspan1040"
         sodipodi:role="line">ОПРЕДЕЛИТЕЛЬ</tspan></text>
    <path
       id="path1072"
       style="fill:#e5c232;fill-opacity:1;stroke:none;stroke-width:0.0205596px;stroke-linecap:butt;stroke-linejoin:miter;stroke-opacity:1"
       d="m -58.68172,-68.996023 c 0.128441,0 0.212592,0.51414 0.242771,0.733435 1.000263,0.162412 1.350605,0.935439 1.350605,0.935439 0,0 -0.172818,0.750951 -1.294222,1.033146 -0.0087,0.229678 -0.04268,0.760682 -0.171227,0.672844 -0.162825,-0.11126 -0.209307,-0.315227 -0.209307,-0.315227 0,0 0.02775,-0.154327 0.06799,-0.297735 -0.319721,0.04263 -0.647754,0.03235 -0.943146,-0.02702 -0.01485,-0.003 -0.07037,-0.139305 -0.151403,-0.178072 -0.0036,-0.0017 -0.008,-0.0037 -0.01166,-0.0054 -0.01541,0.05485 -0.127472,0.427415 -0.310918,0.34139 -0.197716,-0.09272 -0.616404,-0.500667 -0.558252,-0.649012 0.0061,-0.01553 0.02083,-0.02427 0.04168,-0.02799 -0.193291,-0.07167 -0.353198,-0.127202 -0.402236,-0.13893 -0.232606,-0.05563 -0.407038,0.44503 -0.569862,0.44503 -0.05815,0 -0.05817,-1.427827 0.01161,-1.427827 0.06978,0 0.383803,0.463609 0.61641,0.426523 0.193698,-0.03089 0.573396,-0.550086 1.473866,-0.744437 -0.01042,-0.08539 -0.02193,-0.176122 -0.03169,-0.23836 -0.02326,-0.148346 0.686165,-0.537768 0.848989,-0.537768 z" />
  </g>
</svg>
