<?xml version="1.0" encoding="UTF-8" standalone="no"?>
<svg
   xmlns:dc="http://purl.org/dc/elements/1.1/"
   xmlns:cc="http://creativecommons.org/ns#"
   xmlns:rdf="http://www.w3.org/1999/02/22-rdf-syntax-ns#"
   xmlns:svg="http://www.w3.org/2000/svg"
   xmlns="http://www.w3.org/2000/svg"
   xmlns:sodipodi="http://sodipodi.sourceforge.net/DTD/sodipodi-0.dtd"
   xmlns:inkscape="http://www.inkscape.org/namespaces/inkscape"
   width="18.832026"
   height="75.971458"
   viewBox="0 0 4.9826403 20.100782"
   version="1.1"
   id="svg2255"
   inkscape:version="1.0 (4035a4fb49, 2020-05-01)"
   sodipodi:docname="point.svg">
  <defs
     id="defs2249" />
  <sodipodi:namedview
     id="base"
     pagecolor="#ffffff"
     bordercolor="#666666"
     borderopacity="1.0"
     inkscape:pageopacity="0.0"
     inkscape:pageshadow="2"
     inkscape:zoom="7.919596"
     inkscape:cx="35.226456"
     inkscape:cy="36.029715"
     inkscape:document-units="px"
     inkscape:current-layer="layer1"
     inkscape:document-rotation="0"
     showgrid="false"
     fit-margin-top="0"
     fit-margin-left="0"
     fit-margin-right="0"
     fit-margin-bottom="0"
     inkscape:window-width="1513"
     inkscape:window-height="1040"
     inkscape:window-x="104"
     inkscape:window-y="0"
     inkscape:window-maximized="0"
     units="px" />
  <metadata
     id="metadata2252">
    <rdf:RDF>
      <cc:Work
         rdf:about="">
        <dc:format>image/svg+xml</dc:format>
        <dc:type
           rdf:resource="http://purl.org/dc/dcmitype/StillImage" />
        <dc:title></dc:title>
      </cc:Work>
    </rdf:RDF>
  </metadata>
  <g
     inkscape:label="Слой 1"
     inkscape:groupmode="layer"
     id="layer1"
     transform="translate(-105.60987,26.68181)">
    <path
       d="m 108.07949,-26.681786 a 2.491261,2.491261 0 0 0 -2.46962,2.491322 2.491261,2.491261 0 0 0 2.49132,2.491322 2.491261,2.491261 0 0 0 2.49132,-2.491322 2.491261,2.491261 0 0 0 -2.49132,-2.491322 2.491261,2.491261 0 0 0 -0.0217,0 z m 0.0217,1.295529 a 1.1958053,1.1958053 0 0 1 1.1958,1.195793 1.1958053,1.1958053 0 0 1 -1.1958,1.195792 1.1958053,1.1958053 0 0 1 -1.19579,-1.195792 1.1958053,1.1958053 0 0 1 1.19579,-1.195793 z"
       style="fill:#85cfc2;fill-opacity:1;stroke:none;stroke-width:0.394594;stroke-miterlimit:4;stroke-dasharray:1.57837, 0.394594;stroke-dashoffset:0"
       id="circle928" />
    <path
       id="path2570"
       style="fill:#e6e6e6;fill-opacity:1;stroke:none;stroke-width:0.394594;stroke-miterlimit:4;stroke-dasharray:1.57837, 0.394594;stroke-dashoffset:0"
       d="m 108.07949,-21.673601 a 2.491261,2.491261 0 0 0 -2.46962,2.491322 2.491261,2.491261 0 0 0 2.49132,2.491322 2.491261,2.491261 0 0 0 2.49132,-2.491322 2.491261,2.491261 0 0 0 -2.49132,-2.491322 2.491261,2.491261 0 0 0 -0.0217,0 z m 0.0217,1.295529 a 1.1958053,1.1958053 0 0 1 1.1958,1.195793 1.1958053,1.1958053 0 0 1 -1.1958,1.195792 1.1958053,1.1958053 0 0 1 -1.19579,-1.195792 1.1958053,1.1958053 0 0 1 1.19579,-1.195793 z" />
    <path
       d="m 108.07949,-16.641793 a 2.491261,2.491261 0 0 0 -2.46962,2.491322 2.491261,2.491261 0 0 0 2.49132,2.491322 2.491261,2.491261 0 0 0 2.49132,-2.491322 2.491261,2.491261 0 0 0 -2.49132,-2.491322 2.491261,2.491261 0 0 0 -0.0217,0 z m 0.0217,1.295529 a 1.1958053,1.1958053 0 0 1 1.1958,1.195793 1.1958053,1.1958053 0 0 1 -1.1958,1.195792 1.1958053,1.1958053 0 0 1 -1.19579,-1.195792 1.1958053,1.1958053 0 0 1 1.19579,-1.195793 z"
       style="fill:#356e63;fill-opacity:0.933333;stroke:none;stroke-width:0.394594;stroke-miterlimit:4;stroke-dasharray:1.57837, 0.394594;stroke-dashoffset:0"
       id="path2572" />
    <circle
       style="fill:#e5c232;fill-opacity:1;stroke:none;stroke-width:0.400823;stroke-miterlimit:4;stroke-dasharray:1.60328, 0.400823;stroke-dashoffset:0"
       id="circle1167"
       cx="108.12578"
       cy="-14.149536"
       r="1.214678" />
    <path
       id="path3856"
       style="fill:#356e63;fill-opacity:0.933333;stroke:none;stroke-width:0.394594;stroke-miterlimit:4;stroke-dasharray:1.57837, 0.394594;stroke-dashoffset:0"
       d="m 108.04608,-11.630489 a 2.491261,2.491261 0 0 0 -2.46962,2.4913218 2.491261,2.491261 0 0 0 2.49132,2.491322 2.491261,2.491261 0 0 0 2.49132,-2.491322 2.491261,2.491261 0 0 0 -2.49132,-2.4913218 2.491261,2.491261 0 0 0 -0.0217,0 z m 0.0217,1.295529 a 1.1958053,1.1958053 0 0 1 1.1958,1.1957928 1.1958053,1.1958053 0 0 1 -1.1958,1.195792 1.1958053,1.1958053 0 0 1 -1.19579,-1.195792 1.1958053,1.1958053 0 0 1 1.19579,-1.1957928 z" />
  </g>
</svg>
