<?xml version="1.0" encoding="UTF-8" standalone="no"?>
<svg
   xmlns:dc="http://purl.org/dc/elements/1.1/"
   xmlns:cc="http://creativecommons.org/ns#"
   xmlns:rdf="http://www.w3.org/1999/02/22-rdf-syntax-ns#"
   xmlns:svg="http://www.w3.org/2000/svg"
   xmlns="http://www.w3.org/2000/svg"
   xmlns:sodipodi="http://sodipodi.sourceforge.net/DTD/sodipodi-0.dtd"
   xmlns:inkscape="http://www.inkscape.org/namespaces/inkscape"
   width="10.168732mm"
   height="14.937932mm"
   viewBox="0 0 10.168732 14.937932"
   version="1.1"
   id="svg1293"
   inkscape:version="1.0 (4035a4fb49, 2020-05-01)"
   sodipodi:docname="sandwich.svg">
  <defs
     id="defs1287" />
  <sodipodi:namedview
     id="base"
     pagecolor="#ffffff"
     bordercolor="#666666"
     borderopacity="1.0"
     inkscape:pageopacity="0.0"
     inkscape:pageshadow="2"
     inkscape:zoom="7.9195959"
     inkscape:cx="-2.3715978"
     inkscape:cy="47.772311"
     inkscape:document-units="mm"
     inkscape:current-layer="layer1"
     inkscape:document-rotation="0"
     showgrid="false"
     fit-margin-top="0"
     fit-margin-left="0"
     fit-margin-right="0"
     fit-margin-bottom="0"
     inkscape:snap-global="false"
     inkscape:window-width="1513"
     inkscape:window-height="1040"
     inkscape:window-x="104"
     inkscape:window-y="0"
     inkscape:window-maximized="0" />
  <metadata
     id="metadata1290">
    <rdf:RDF>
      <cc:Work
         rdf:about="">
        <dc:format>image/svg+xml</dc:format>
        <dc:type
           rdf:resource="http://purl.org/dc/dcmitype/StillImage" />
        <dc:title />
      </cc:Work>
    </rdf:RDF>
  </metadata>
  <g
     inkscape:label="Слой 1"
     inkscape:groupmode="layer"
     id="layer1"
     transform="translate(38.096789,88.585475)">
    <path
       sodipodi:nodetypes="cccccccccccccccccccccccccccccc"
       d="m -38.096789,-83.487698 v 1.343585 h 2.236621 v -1.343585 z m 2.681667,0 v 1.343585 h 2.27531 v -1.343585 z m -2.681667,1.764749 v 1.343589 h 2.236621 v -1.343589 z m 2.681667,0 v 1.343589 h 2.27531 v -1.343589 z m -2.681667,1.727544 v 1.343586 h 2.236621 v -1.343586 z m 2.681667,0 v 1.343586 h 2.27531 v -1.343586 z"
       style="fill:#cccccc;fill-opacity:1;stroke:none;stroke-width:0.382365;stroke-miterlimit:4;stroke-dasharray:none;stroke-opacity:1"
       id="rect1991" />
    <path
       d="m -38.096789,-78.438465 v 1.343589 h 4.958878 v -1.343589 z m 0,1.719792 v 1.343588 h 4.958878 v -1.343588 z m 0,1.727544 v 1.343586 h 4.958878 v -1.343586 z"
       style="fill:#cccccc;fill-opacity:1;stroke:none;stroke-width:0.737062;stroke-miterlimit:4;stroke-dasharray:none;stroke-opacity:1"
       id="rect2009" />
    <path
       d="m -38.096789,-88.585475 v 1.343586 h 1.348022 v -1.343586 z m 1.797549,0 v 1.343586 h 1.348023 v -1.343586 z m 1.79755,0 v 1.343586 h 1.348023 v -1.343586 z m -3.595099,1.76475 v 1.343588 h 1.348022 v -1.343588 z m 1.797549,0 v 1.343588 h 1.348023 v -1.343588 z m 1.79755,0 v 1.343588 h 1.348023 v -1.343588 z m -3.595099,1.727544 v 1.343586 h 1.348022 v -1.343586 z m 1.797549,0 v 1.343586 h 1.348023 v -1.343586 z m 1.79755,0 v 1.343586 h 1.348023 v -1.343586 z"
       style="fill:#cccccc;fill-opacity:1;stroke:none;stroke-width:0.384285;stroke-miterlimit:4;stroke-dasharray:none;stroke-opacity:1"
       id="rect1228" />
    <path
       sodipodi:nodetypes="cccccccccccccccccccccccccccccc"
       id="path1866"
       style="fill:#85cfc2;fill-opacity:1;stroke:none;stroke-width:0.382365;stroke-miterlimit:4;stroke-dasharray:none;stroke-opacity:1"
       d="m -32.918442,-83.487698 v 1.343585 h 2.236621 v -1.343585 z m 2.681667,0 v 1.343585 h 2.27531 v -1.343585 z m -2.681667,1.764749 v 1.343589 h 2.236621 v -1.343589 z m 2.681667,0 v 1.343589 h 2.27531 v -1.343589 z m -2.681667,1.727544 v 1.343586 h 2.236621 v -1.343586 z m 2.681667,0 v 1.343586 h 2.27531 v -1.343586 z" />
    <path
       id="path1868"
       style="fill:#85cfc2;fill-opacity:1;stroke:none;stroke-width:0.737062;stroke-miterlimit:4;stroke-dasharray:none;stroke-opacity:1"
       d="m -32.918442,-78.438465 v 1.343589 h 4.958878 v -1.343589 z m 0,1.719792 v 1.343588 h 4.958878 v -1.343588 z m 0,1.727544 v 1.343586 h 4.958878 v -1.343586 z" />
    <path
       id="path1870"
       style="fill:#85cfc2;fill-opacity:1;stroke:none;stroke-width:0.384285;stroke-miterlimit:4;stroke-dasharray:none;stroke-opacity:1"
       d="m -32.918442,-88.585475 v 1.343586 h 1.348022 v -1.343586 z m 1.797549,0 v 1.343586 h 1.348023 v -1.343586 z m 1.79755,0 v 1.343586 h 1.348023 v -1.343586 z m -3.595099,1.76475 v 1.343588 h 1.348022 v -1.343588 z m 1.797549,0 v 1.343588 h 1.348023 v -1.343588 z m 1.79755,0 v 1.343588 h 1.348023 v -1.343588 z m -3.595099,1.727544 v 1.343586 h 1.348022 v -1.343586 z m 1.797549,0 v 1.343586 h 1.348023 v -1.343586 z m 1.79755,0 v 1.343586 h 1.348023 v -1.343586 z" />
  </g>
</svg>
