<?xml version="1.0" encoding="UTF-8" standalone="no"?>
<svg
   xmlns:dc="http://purl.org/dc/elements/1.1/"
   xmlns:cc="http://creativecommons.org/ns#"
   xmlns:rdf="http://www.w3.org/1999/02/22-rdf-syntax-ns#"
   xmlns:svg="http://www.w3.org/2000/svg"
   xmlns="http://www.w3.org/2000/svg"
   xmlns:sodipodi="http://sodipodi.sourceforge.net/DTD/sodipodi-0.dtd"
   xmlns:inkscape="http://www.inkscape.org/namespaces/inkscape"
   width="7.3805671mm"
   height="14.640259mm"
   viewBox="0 0 7.3805671 14.640259"
   version="1.1"
   id="svg1069"
   inkscape:version="1.0 (4035a4fb49, 2020-05-01)"
   sodipodi:docname="search.svg">
  <defs
     id="defs1063" />
  <sodipodi:namedview
     id="base"
     pagecolor="#ffffff"
     bordercolor="#666666"
     borderopacity="1.0"
     inkscape:pageopacity="0.0"
     inkscape:pageshadow="2"
     inkscape:zoom="11.2"
     inkscape:cx="28.185039"
     inkscape:cy="35.322529"
     inkscape:document-units="mm"
     inkscape:current-layer="layer1"
     inkscape:document-rotation="0"
     showgrid="false"
     fit-margin-top="0"
     fit-margin-left="0"
     fit-margin-right="0"
     fit-margin-bottom="0"
     inkscape:window-width="1513"
     inkscape:window-height="1040"
     inkscape:window-x="234"
     inkscape:window-y="0"
     inkscape:window-maximized="0" />
  <metadata
     id="metadata1066">
    <rdf:RDF>
      <cc:Work
         rdf:about="">
        <dc:format>image/svg+xml</dc:format>
        <dc:type
           rdf:resource="http://purl.org/dc/dcmitype/StillImage" />
        <dc:title></dc:title>
      </cc:Work>
    </rdf:RDF>
  </metadata>
  <g
     inkscape:label="Слой 1"
     inkscape:groupmode="layer"
     id="layer1"
     transform="translate(15.518641,-35.138981)">
    <path
       sodipodi:nodetypes="csccccssscccccsccssssss"
       d="m -14.169624,36.490936 c -0.772288,0.772309 -0.771773,2.034061 5.29e-4,2.80637 0.663028,0.663027 1.686128,0.755494 2.451212,0.280237 4.69e-4,4.81e-4 7.13e-4,0.0011 0.0012,0.0015 l 0.409039,0.409053 c -0.07657,0.185025 -0.0398,0.405261 0.111075,0.556128 l 1.043468,0.98726 c 0.2055792,0.194512 0.5223695,0.200124 0.7225009,0 l 0.3582844,-0.358293 c 0.2001314,-0.200124 0.2001314,-0.522373 0,-0.722498 l -1.0434613,-0.987269 c -0.150874,-0.15092 -0.371056,-0.187802 -0.556114,-0.111091 l -0.409056,-0.409055 c -5.29e-4,-5.37e-4 -0.0012,-8.66e-4 -0.0013,-0.0014 0.474898,-0.765151 0.382769,-1.78821 -0.280047,-2.451031 -0.772317,-0.77231 -2.034591,-0.77231 -2.806909,0 z m 0.454786,0.454777 c 0.526865,-0.526865 1.37117,-0.527561 1.898034,-6.95e-4 0.526864,0.526866 0.527045,1.372038 1.66e-4,1.898903 -0.526863,0.526866 -1.371502,0.526171 -1.898365,-6.95e-4 -0.526879,-0.526866 -0.526698,-1.370645 1.65e-4,-1.897513 z"
       style="color:#000000;font-style:normal;font-variant:normal;font-weight:normal;font-stretch:normal;font-size:medium;line-height:normal;font-family:sans-serif;font-variant-ligatures:normal;font-variant-position:normal;font-variant-caps:normal;font-variant-numeric:normal;font-variant-alternates:normal;font-variant-east-asian:normal;font-feature-settings:normal;font-variation-settings:normal;text-indent:0;text-align:start;text-decoration:none;text-decoration-line:none;text-decoration-style:solid;text-decoration-color:#000000;letter-spacing:normal;word-spacing:normal;text-transform:none;writing-mode:lr-tb;direction:ltr;text-orientation:mixed;dominant-baseline:auto;baseline-shift:baseline;text-anchor:start;white-space:normal;shape-padding:0;shape-margin:0;inline-size:0;clip-rule:nonzero;display:inline;overflow:visible;visibility:visible;opacity:1;isolation:auto;mix-blend-mode:normal;color-interpolation:sRGB;color-interpolation-filters:linearRGB;solid-color:#000000;solid-opacity:1;vector-effect:none;fill:#cccccc;fill-opacity:1;fill-rule:nonzero;stroke:none;stroke-width:0.642268;stroke-linecap:butt;stroke-linejoin:miter;stroke-miterlimit:4;stroke-dasharray:none;stroke-dashoffset:0;stroke-opacity:1;color-rendering:auto;image-rendering:auto;shape-rendering:auto;text-rendering:auto;enable-background:accumulate;stop-color:#000000;stop-opacity:1"
       id="path1051" />
    <rect
       y="35.138981"
       x="-15.518641"
       height="7.3201289"
       width="7.3805671"
       id="rect2207"
       style="fill:none;stroke:none;stroke-width:0.613828" />
    <path
       id="path2209"
       style="color:#000000;font-style:normal;font-variant:normal;font-weight:normal;font-stretch:normal;font-size:medium;line-height:normal;font-family:sans-serif;font-variant-ligatures:normal;font-variant-position:normal;font-variant-caps:normal;font-variant-numeric:normal;font-variant-alternates:normal;font-variant-east-asian:normal;font-feature-settings:normal;font-variation-settings:normal;text-indent:0;text-align:start;text-decoration:none;text-decoration-line:none;text-decoration-style:solid;text-decoration-color:#000000;letter-spacing:normal;word-spacing:normal;text-transform:none;writing-mode:lr-tb;direction:ltr;text-orientation:mixed;dominant-baseline:auto;baseline-shift:baseline;text-anchor:start;white-space:normal;shape-padding:0;shape-margin:0;inline-size:0;clip-rule:nonzero;display:inline;overflow:visible;visibility:visible;opacity:0.99;isolation:auto;mix-blend-mode:normal;color-interpolation:sRGB;color-interpolation-filters:linearRGB;solid-color:#000000;solid-opacity:1;vector-effect:none;fill:#e5c232;fill-opacity:1;fill-rule:nonzero;stroke:none;stroke-width:0.642268;stroke-linecap:butt;stroke-linejoin:miter;stroke-miterlimit:4;stroke-dasharray:none;stroke-dashoffset:0;stroke-opacity:1;color-rendering:auto;image-rendering:auto;shape-rendering:auto;text-rendering:auto;enable-background:accumulate;stop-color:#000000;stop-opacity:1"
       d="m -14.169624,43.811065 c -0.772288,0.772309 -0.771773,2.034061 5.29e-4,2.80637 0.663028,0.663027 1.686128,0.755494 2.451212,0.280237 4.69e-4,4.81e-4 7.13e-4,0.0011 0.0012,0.0015 l 0.409039,0.409053 c -0.07657,0.185025 -0.0398,0.405261 0.111075,0.556128 l 1.043468,0.98726 c 0.2055792,0.194512 0.5223695,0.200124 0.7225009,0 l 0.3582844,-0.358293 c 0.2001314,-0.200124 0.2001314,-0.522373 0,-0.722498 l -1.0434613,-0.987269 c -0.150874,-0.15092 -0.371056,-0.187802 -0.556114,-0.111091 l -0.409056,-0.409055 c -5.29e-4,-5.37e-4 -0.0012,-8.66e-4 -0.0013,-0.0014 0.474898,-0.765151 0.382769,-1.78821 -0.280047,-2.451031 -0.772317,-0.77231 -2.034591,-0.77231 -2.806909,0 z m 0.454786,0.454777 c 0.526865,-0.526865 1.37117,-0.527561 1.898034,-6.95e-4 0.526864,0.526866 0.527045,1.372038 1.66e-4,1.898903 -0.526863,0.526866 -1.371502,0.526171 -1.898365,-6.95e-4 -0.526879,-0.526866 -0.526698,-1.370645 1.65e-4,-1.897513 z"
       sodipodi:nodetypes="csccccssscccccsccssssss" />
    <rect
       style="fill:none;stroke:none;stroke-width:0.613828"
       id="rect2211"
       width="7.3805671"
       height="7.3201289"
       x="-15.518641"
       y="42.45911" />
  </g>
</svg>
